<?xml version="1.0" standalone="no"?>
<!DOCTYPE svg PUBLIC "-//W3C//DTD SVG 20010904//EN"
 "http://www.w3.org/TR/2001/REC-SVG-20010904/DTD/svg10.dtd">
<svg version="1.0" xmlns="http://www.w3.org/2000/svg"
 width="16.000000pt" height="16.000000pt" viewBox="0 0 16.000000 16.000000"
 preserveAspectRatio="xMidYMid meet">
<metadata>
Created by potrace 1.11, written by Peter Selinger 2001-2013
</metadata>
<g transform="translate(0.000000,16.000000) scale(0.000384,-0.000384)"
fill="#000000" stroke="none">
<path d="M10 20855 l0 -20855 20855 0 20855 0 0 20855 0 20855 -20855 0
-20855 0 0 -20855z m30852 1463 l-72 -73 -260 260 -260 260 72 72 73 73 260
-260 260 -260 -73 -72z m-524 -1 c138 -138 252 -257 252 -262 0 -6 -427 -438
-950 -960 l-950 -950 -260 260 -260 260 952 952 c524 524 955 953 958 953 3 0
119 -114 258 -253z m-14374 -128 c56 -16 122 -80 142 -141 51 -156 -54 -308
-214 -308 -98 0 -184 61 -211 149 -56 189 97 352 283 300z m5926 -546 l0 -516
38 59 c55 84 143 160 237 205 131 63 187 74 375 73 152 0 171 -2 246 -27 203
-68 334 -212 396 -434 21 -76 22 -98 26 -700 l3 -623 -195 0 -196 0 0 523 c0
415 -3 536 -15 590 -37 176 -154 282 -343 309 -67 10 -93 9 -162 -5 -187 -36
-307 -140 -379 -325 l-26 -67 -3 -512 -3 -513 -195 0 -194 0 0 1240 0 1240
195 0 195 0 0 -517z m-10446 -555 c153 -513 281 -936 285 -941 4 -4 132 416
286 933 l278 940 197 0 196 0 279 -940 c154 -517 282 -940 285 -940 3 0 90
287 194 638 104 350 229 773 279 940 l90 302 203 0 c112 0 204 -3 204 -7 0 -5
-174 -531 -387 -1170 l-388 -1163 -205 0 -206 0 -274 906 c-247 812 -276 902
-286 877 -6 -15 -132 -423 -280 -905 l-269 -878 -207 0 -206 0 -76 228 c-309
935 -685 2071 -690 2090 l-7 22 214 0 213 0 278 -932z m9904 755 l-3 -178
-367 -3 -368 -2 0 -990 0 -990 -200 0 -200 0 0 990 0 990 -370 0 -370 0 0 180
0 180 940 0 940 0 -2 -177z m-4248 -208 l0 -245 265 0 266 0 -3 -142 -3 -143
-262 -3 -263 -2 0 -444 c0 -256 4 -466 10 -497 18 -94 68 -140 158 -147 65 -5
158 16 239 53 l52 23 50 -148 49 -149 -41 -24 c-115 -66 -263 -107 -394 -107
-259 0 -433 128 -488 362 -12 51 -15 156 -15 571 l0 507 -125 0 -125 0 0 145
0 145 125 0 125 0 0 245 0 245 190 0 190 0 0 -245z m9526 -170 c158 -28 414
-131 414 -168 0 -19 -128 -277 -138 -277 -5 0 -34 14 -65 31 -204 110 -479
150 -604 88 -69 -35 -96 -79 -91 -152 4 -49 9 -62 39 -93 46 -48 125 -84 308
-139 261 -80 367 -131 458 -223 102 -101 147 -252 124 -410 -16 -108 -57 -190
-133 -265 -74 -73 -149 -115 -273 -153 -84 -26 -101 -28 -275 -28 -167 0 -194
3 -281 26 -167 45 -312 113 -398 185 l-33 29 67 134 c37 74 69 137 71 139 2 2
21 -11 43 -28 60 -48 197 -116 289 -145 279 -87 521 -37 547 113 14 86 -35
165 -133 215 -26 13 -133 51 -239 85 -254 81 -351 130 -434 219 -83 88 -109
151 -116 283 -6 112 6 176 50 263 68 137 233 242 435 276 81 13 275 11 368 -5z
m-11228 -177 l-3 -183 -94 -7 c-220 -15 -381 -118 -467 -296 -50 -105 -54
-150 -54 -654 l0 -468 -195 0 -195 0 0 890 0 890 195 0 195 0 0 -172 0 -173
40 62 c114 173 321 289 523 292 l57 1 -2 -182z m3597 153 c44 -11 118 -40 165
-62 115 -56 238 -178 292 -289 77 -158 98 -255 105 -487 l6 -183 -673 0 -672
0 6 -32 c25 -127 152 -286 277 -347 214 -105 504 -65 706 98 l58 47 104 -108
c88 -92 101 -110 90 -124 -32 -38 -162 -133 -234 -171 -168 -86 -328 -119
-544 -110 -165 7 -282 36 -410 102 -163 84 -270 194 -351 360 -182 371 -104
850 182 1110 113 102 287 185 450 214 92 17 352 6 443 -18z m-2915 -871 l0
-890 -190 0 -190 0 0 890 0 890 190 0 190 0 0 -890z m7960 368 c0 -566 3 -606
55 -707 72 -144 238 -219 423 -192 197 28 338 159 399 368 15 50 17 123 21
556 l3 497 195 0 194 0 0 -890 0 -890 -195 0 -195 0 -2 166 -3 165 -43 -65
c-56 -85 -128 -148 -227 -196 -109 -54 -179 -71 -320 -77 -151 -7 -248 11
-362 67 -154 76 -252 203 -305 395 -21 78 -22 98 -26 703 l-3 622 195 0 196 0
0 -522z m4180 -753 c135 -135 242 -245 239 -245 -3 0 -163 -47 -354 -105 -192
-57 -350 -103 -351 -102 0 1 41 142 92 312 52 171 99 327 104 348 6 20 14 37
18 37 4 0 117 -110 252 -245z"/>
<path d="M18586 21144 c-189 -46 -333 -203 -371 -407 l-7 -37 506 0 507 0 -7
48 c-32 222 -163 362 -378 403 -69 13 -181 10 -250 -7z"/>
</g>
</svg>
